<mxfile host="app.diagrams.net" agent="Mozilla/5.0 (Windows NT 10.0; Win64; x64) AppleWebKit/537.36 (KHTML, like Gecko) Chrome/127.0.0.0 Safari/537.36" version="24.7.6" pages="2">
  <diagram id="R2lEEEUBdFMjLlhIrx00" name="Page-1">
    <mxGraphModel dx="704" dy="1447" grid="1" gridSize="10" guides="1" tooltips="1" connect="1" arrows="1" fold="1" page="1" pageScale="1" pageWidth="850" pageHeight="1100" math="0" shadow="0" extFonts="Permanent Marker^https://fonts.googleapis.com/css?family=Permanent+Marker">
      <root>
        <mxCell id="0" />
        <mxCell id="1" parent="0" />
        <mxCell id="vUsgY7-ng19fCDbpC5KG-64" value="Category" style="shape=table;startSize=30;container=1;collapsible=1;childLayout=tableLayout;fixedRows=1;rowLines=0;fontStyle=1;align=center;resizeLast=1;html=1;strokeColor=#D0CEE2;fontColor=#1A1A1A;fillColor=#5D7F99;perimeterSpacing=3;" vertex="1" parent="1">
          <mxGeometry x="60" y="845" width="180" height="150" as="geometry" />
        </mxCell>
        <mxCell id="vUsgY7-ng19fCDbpC5KG-65" value="" style="shape=tableRow;horizontal=0;startSize=0;swimlaneHead=0;swimlaneBody=0;fillColor=none;collapsible=0;dropTarget=0;points=[[0,0.5],[1,0.5]];portConstraint=eastwest;top=0;left=0;right=0;bottom=1;strokeColor=#D0CEE2;fontColor=#1A1A1A;" vertex="1" parent="vUsgY7-ng19fCDbpC5KG-64">
          <mxGeometry y="30" width="180" height="30" as="geometry" />
        </mxCell>
        <mxCell id="vUsgY7-ng19fCDbpC5KG-66" value="PK" style="shape=partialRectangle;connectable=0;fillColor=none;top=0;left=0;bottom=0;right=0;fontStyle=1;overflow=hidden;whiteSpace=wrap;html=1;strokeColor=#D0CEE2;fontColor=#1A1A1A;" vertex="1" parent="vUsgY7-ng19fCDbpC5KG-65">
          <mxGeometry width="30" height="30" as="geometry">
            <mxRectangle width="30" height="30" as="alternateBounds" />
          </mxGeometry>
        </mxCell>
        <mxCell id="vUsgY7-ng19fCDbpC5KG-67" value="&lt;u style=&quot;&quot;&gt;category_id&lt;/u&gt;&lt;u style=&quot;font-weight: 400;&quot;&gt; int not null&lt;/u&gt;" style="shape=partialRectangle;connectable=0;fillColor=none;top=0;left=0;bottom=0;right=0;align=left;spacingLeft=6;fontStyle=5;overflow=hidden;whiteSpace=wrap;html=1;strokeColor=#D0CEE2;fontColor=#1A1A1A;" vertex="1" parent="vUsgY7-ng19fCDbpC5KG-65">
          <mxGeometry x="30" width="150" height="30" as="geometry">
            <mxRectangle width="150" height="30" as="alternateBounds" />
          </mxGeometry>
        </mxCell>
        <mxCell id="vUsgY7-ng19fCDbpC5KG-68" value="" style="shape=tableRow;horizontal=0;startSize=0;swimlaneHead=0;swimlaneBody=0;fillColor=none;collapsible=0;dropTarget=0;points=[[0,0.5],[1,0.5]];portConstraint=eastwest;top=0;left=0;right=0;bottom=0;strokeColor=#D0CEE2;fontColor=#1A1A1A;" vertex="1" parent="vUsgY7-ng19fCDbpC5KG-64">
          <mxGeometry y="60" width="180" height="30" as="geometry" />
        </mxCell>
        <mxCell id="vUsgY7-ng19fCDbpC5KG-69" value="" style="shape=partialRectangle;connectable=0;fillColor=none;top=0;left=0;bottom=0;right=0;editable=1;overflow=hidden;whiteSpace=wrap;html=1;strokeColor=#D0CEE2;fontColor=#1A1A1A;" vertex="1" parent="vUsgY7-ng19fCDbpC5KG-68">
          <mxGeometry width="30" height="30" as="geometry">
            <mxRectangle width="30" height="30" as="alternateBounds" />
          </mxGeometry>
        </mxCell>
        <mxCell id="vUsgY7-ng19fCDbpC5KG-70" value="name varchar(60)" style="shape=partialRectangle;connectable=0;fillColor=none;top=0;left=0;bottom=0;right=0;align=left;spacingLeft=6;overflow=hidden;whiteSpace=wrap;html=1;strokeColor=#D0CEE2;fontColor=#1A1A1A;" vertex="1" parent="vUsgY7-ng19fCDbpC5KG-68">
          <mxGeometry x="30" width="150" height="30" as="geometry">
            <mxRectangle width="150" height="30" as="alternateBounds" />
          </mxGeometry>
        </mxCell>
        <mxCell id="vUsgY7-ng19fCDbpC5KG-71" value="" style="shape=tableRow;horizontal=0;startSize=0;swimlaneHead=0;swimlaneBody=0;fillColor=none;collapsible=0;dropTarget=0;points=[[0,0.5],[1,0.5]];portConstraint=eastwest;top=0;left=0;right=0;bottom=0;strokeColor=#D0CEE2;fontColor=#1A1A1A;" vertex="1" parent="vUsgY7-ng19fCDbpC5KG-64">
          <mxGeometry y="90" width="180" height="30" as="geometry" />
        </mxCell>
        <mxCell id="vUsgY7-ng19fCDbpC5KG-72" value="" style="shape=partialRectangle;connectable=0;fillColor=none;top=0;left=0;bottom=0;right=0;editable=1;overflow=hidden;whiteSpace=wrap;html=1;strokeColor=#D0CEE2;fontColor=#1A1A1A;" vertex="1" parent="vUsgY7-ng19fCDbpC5KG-71">
          <mxGeometry width="30" height="30" as="geometry">
            <mxRectangle width="30" height="30" as="alternateBounds" />
          </mxGeometry>
        </mxCell>
        <mxCell id="vUsgY7-ng19fCDbpC5KG-73" value="description text not null" style="shape=partialRectangle;connectable=0;fillColor=none;top=0;left=0;bottom=0;right=0;align=left;spacingLeft=6;overflow=hidden;whiteSpace=wrap;html=1;strokeColor=#D0CEE2;fontColor=#1A1A1A;" vertex="1" parent="vUsgY7-ng19fCDbpC5KG-71">
          <mxGeometry x="30" width="150" height="30" as="geometry">
            <mxRectangle width="150" height="30" as="alternateBounds" />
          </mxGeometry>
        </mxCell>
        <mxCell id="vUsgY7-ng19fCDbpC5KG-90" value="" style="shape=tableRow;horizontal=0;startSize=0;swimlaneHead=0;swimlaneBody=0;fillColor=none;collapsible=0;dropTarget=0;points=[[0,0.5],[1,0.5]];portConstraint=eastwest;top=0;left=0;right=0;bottom=0;strokeColor=#D0CEE2;fontColor=#1A1A1A;" vertex="1" parent="vUsgY7-ng19fCDbpC5KG-64">
          <mxGeometry y="120" width="180" height="30" as="geometry" />
        </mxCell>
        <mxCell id="vUsgY7-ng19fCDbpC5KG-91" value="" style="shape=partialRectangle;connectable=0;fillColor=none;top=0;left=0;bottom=0;right=0;editable=1;overflow=hidden;whiteSpace=wrap;html=1;strokeColor=#D0CEE2;fontColor=#1A1A1A;" vertex="1" parent="vUsgY7-ng19fCDbpC5KG-90">
          <mxGeometry width="30" height="30" as="geometry">
            <mxRectangle width="30" height="30" as="alternateBounds" />
          </mxGeometry>
        </mxCell>
        <mxCell id="vUsgY7-ng19fCDbpC5KG-92" value="parent_category_id int" style="shape=partialRectangle;connectable=0;fillColor=none;top=0;left=0;bottom=0;right=0;align=left;spacingLeft=6;overflow=hidden;whiteSpace=wrap;html=1;strokeColor=#D0CEE2;fontColor=#1A1A1A;" vertex="1" parent="vUsgY7-ng19fCDbpC5KG-90">
          <mxGeometry x="30" width="150" height="30" as="geometry">
            <mxRectangle width="150" height="30" as="alternateBounds" />
          </mxGeometry>
        </mxCell>
        <mxCell id="J0RzfSza5QBcRtgYa5vt-33" value="" style="edgeStyle=entityRelationEdgeStyle;fontSize=12;html=1;endArrow=ERzeroToMany;endFill=1;rounded=0;strokeColor=#736CA8;fontColor=#1A1A1A;exitX=1;exitY=0.5;exitDx=0;exitDy=0;" edge="1" parent="vUsgY7-ng19fCDbpC5KG-64" source="vUsgY7-ng19fCDbpC5KG-90" target="vUsgY7-ng19fCDbpC5KG-64">
          <mxGeometry width="100" height="100" relative="1" as="geometry">
            <mxPoint x="190" y="145" as="sourcePoint" />
            <mxPoint x="190" y="35" as="targetPoint" />
            <Array as="points">
              <mxPoint x="200" y="33" />
            </Array>
          </mxGeometry>
        </mxCell>
        <mxCell id="vUsgY7-ng19fCDbpC5KG-81" value="FK" style="shape=partialRectangle;connectable=0;fillColor=none;top=0;left=0;bottom=0;right=0;editable=1;overflow=hidden;whiteSpace=wrap;html=1;strokeColor=#D0CEE2;fontColor=#1A1A1A;" vertex="1" parent="1">
          <mxGeometry x="670" y="500" width="30" height="30" as="geometry">
            <mxRectangle width="30" height="20" as="alternateBounds" />
          </mxGeometry>
        </mxCell>
        <mxCell id="vUsgY7-ng19fCDbpC5KG-96" value="Employee" style="shape=table;startSize=30;container=1;collapsible=1;childLayout=tableLayout;fixedRows=1;rowLines=0;fontStyle=1;align=center;resizeLast=1;html=1;strokeColor=#D0CEE2;fontColor=#1A1A1A;fillColor=#5D7F99;perimeterSpacing=3;" vertex="1" parent="1">
          <mxGeometry x="400" y="-130" width="250" height="260" as="geometry" />
        </mxCell>
        <mxCell id="vUsgY7-ng19fCDbpC5KG-97" value="" style="shape=tableRow;horizontal=0;startSize=0;swimlaneHead=0;swimlaneBody=0;fillColor=none;collapsible=0;dropTarget=0;points=[[0,0.5],[1,0.5]];portConstraint=eastwest;top=0;left=0;right=0;bottom=1;strokeColor=#D0CEE2;fontColor=#1A1A1A;" vertex="1" parent="vUsgY7-ng19fCDbpC5KG-96">
          <mxGeometry y="30" width="250" height="30" as="geometry" />
        </mxCell>
        <mxCell id="vUsgY7-ng19fCDbpC5KG-98" value="PK" style="shape=partialRectangle;connectable=0;fillColor=none;top=0;left=0;bottom=0;right=0;fontStyle=1;overflow=hidden;whiteSpace=wrap;html=1;strokeColor=#D0CEE2;fontColor=#1A1A1A;" vertex="1" parent="vUsgY7-ng19fCDbpC5KG-97">
          <mxGeometry width="30" height="30" as="geometry">
            <mxRectangle width="30" height="30" as="alternateBounds" />
          </mxGeometry>
        </mxCell>
        <mxCell id="vUsgY7-ng19fCDbpC5KG-99" value="&lt;div&gt;&lt;u&gt;&lt;br&gt;&lt;/u&gt;&lt;/div&gt;&lt;u&gt;employee_id &lt;span style=&quot;font-weight: normal;&quot;&gt;int not null&lt;/span&gt;&lt;/u&gt;" style="shape=partialRectangle;connectable=0;fillColor=none;top=0;left=0;bottom=0;right=0;align=left;spacingLeft=6;fontStyle=5;overflow=hidden;whiteSpace=wrap;html=1;strokeColor=#D0CEE2;fontColor=#1A1A1A;" vertex="1" parent="vUsgY7-ng19fCDbpC5KG-97">
          <mxGeometry x="30" width="220" height="30" as="geometry">
            <mxRectangle width="220" height="30" as="alternateBounds" />
          </mxGeometry>
        </mxCell>
        <mxCell id="vUsgY7-ng19fCDbpC5KG-100" value="" style="shape=tableRow;horizontal=0;startSize=0;swimlaneHead=0;swimlaneBody=0;fillColor=none;collapsible=0;dropTarget=0;points=[[0,0.5],[1,0.5]];portConstraint=eastwest;top=0;left=0;right=0;bottom=0;strokeColor=#D0CEE2;fontColor=#1A1A1A;" vertex="1" parent="vUsgY7-ng19fCDbpC5KG-96">
          <mxGeometry y="60" width="250" height="20" as="geometry" />
        </mxCell>
        <mxCell id="vUsgY7-ng19fCDbpC5KG-101" value="" style="shape=partialRectangle;connectable=0;fillColor=none;top=0;left=0;bottom=0;right=0;editable=1;overflow=hidden;whiteSpace=wrap;html=1;strokeColor=#D0CEE2;fontColor=#1A1A1A;" vertex="1" parent="vUsgY7-ng19fCDbpC5KG-100">
          <mxGeometry width="30" height="20" as="geometry">
            <mxRectangle width="30" height="20" as="alternateBounds" />
          </mxGeometry>
        </mxCell>
        <mxCell id="vUsgY7-ng19fCDbpC5KG-102" value="&lt;div&gt;&lt;br&gt;&lt;/div&gt;last_name&amp;nbsp;varchar(40)" style="shape=partialRectangle;connectable=0;fillColor=none;top=0;left=0;bottom=0;right=0;align=left;spacingLeft=6;overflow=hidden;whiteSpace=wrap;html=1;strokeColor=#D0CEE2;fontColor=#1A1A1A;" vertex="1" parent="vUsgY7-ng19fCDbpC5KG-100">
          <mxGeometry x="30" width="220" height="20" as="geometry">
            <mxRectangle width="220" height="20" as="alternateBounds" />
          </mxGeometry>
        </mxCell>
        <mxCell id="vUsgY7-ng19fCDbpC5KG-103" value="" style="shape=tableRow;horizontal=0;startSize=0;swimlaneHead=0;swimlaneBody=0;fillColor=none;collapsible=0;dropTarget=0;points=[[0,0.5],[1,0.5]];portConstraint=eastwest;top=0;left=0;right=0;bottom=0;strokeColor=#D0CEE2;fontColor=#1A1A1A;" vertex="1" parent="vUsgY7-ng19fCDbpC5KG-96">
          <mxGeometry y="80" width="250" height="30" as="geometry" />
        </mxCell>
        <mxCell id="vUsgY7-ng19fCDbpC5KG-104" value="" style="shape=partialRectangle;connectable=0;fillColor=none;top=0;left=0;bottom=0;right=0;editable=1;overflow=hidden;whiteSpace=wrap;html=1;strokeColor=#D0CEE2;fontColor=#1A1A1A;" vertex="1" parent="vUsgY7-ng19fCDbpC5KG-103">
          <mxGeometry width="30" height="30" as="geometry">
            <mxRectangle width="30" height="30" as="alternateBounds" />
          </mxGeometry>
        </mxCell>
        <mxCell id="vUsgY7-ng19fCDbpC5KG-105" value="&lt;div&gt;&lt;br&gt;&lt;/div&gt;birth_date&amp;nbsp;&lt;span style=&quot;color: rgb(113, 113, 113);&quot;&gt;date&lt;/span&gt;&lt;table style=&quot;border-style: none; border-collapse: collapse;&quot;&gt;&lt;tbody&gt;&lt;tr&gt;&lt;td style=&quot;border-style: none; padding-left: 15px;&quot;&gt;&lt;br&gt;&lt;/td&gt;&lt;td style=&quot;border-style: none; padding-left: 15px;&quot;&gt;&lt;br&gt;&lt;/td&gt;&lt;/tr&gt;&lt;/tbody&gt;&lt;/table&gt;" style="shape=partialRectangle;connectable=0;fillColor=none;top=0;left=0;bottom=0;right=0;align=left;spacingLeft=6;overflow=hidden;whiteSpace=wrap;html=1;strokeColor=#D0CEE2;fontColor=#1A1A1A;" vertex="1" parent="vUsgY7-ng19fCDbpC5KG-103">
          <mxGeometry x="30" width="220" height="30" as="geometry">
            <mxRectangle width="220" height="30" as="alternateBounds" />
          </mxGeometry>
        </mxCell>
        <mxCell id="vUsgY7-ng19fCDbpC5KG-187" value="" style="shape=tableRow;horizontal=0;startSize=0;swimlaneHead=0;swimlaneBody=0;fillColor=none;collapsible=0;dropTarget=0;points=[[0,0.5],[1,0.5]];portConstraint=eastwest;top=0;left=0;right=0;bottom=0;strokeColor=#D0CEE2;fontColor=#1A1A1A;" vertex="1" parent="vUsgY7-ng19fCDbpC5KG-96">
          <mxGeometry y="110" width="250" height="30" as="geometry" />
        </mxCell>
        <mxCell id="vUsgY7-ng19fCDbpC5KG-188" value="" style="shape=partialRectangle;connectable=0;fillColor=none;top=0;left=0;bottom=0;right=0;editable=1;overflow=hidden;whiteSpace=wrap;html=1;strokeColor=#D0CEE2;fontColor=#1A1A1A;" vertex="1" parent="vUsgY7-ng19fCDbpC5KG-187">
          <mxGeometry width="30" height="30" as="geometry">
            <mxRectangle width="30" height="30" as="alternateBounds" />
          </mxGeometry>
        </mxCell>
        <mxCell id="vUsgY7-ng19fCDbpC5KG-189" value="&lt;div&gt;&lt;br&gt;&lt;/div&gt;hire_date&amp;nbsp;&lt;span style=&quot;color: rgb(113, 113, 113);&quot;&gt;date&amp;nbsp;&lt;/span&gt;not null&lt;table style=&quot;border-style: none; border-collapse: collapse;&quot;&gt;&lt;tbody&gt;&lt;tr&gt;&lt;td style=&quot;border-style: none; padding-left: 15px;&quot;&gt;&lt;/td&gt;&lt;td style=&quot;border-style: none; padding-left: 15px;&quot;&gt;&lt;br&gt;&lt;/td&gt;&lt;td style=&quot;border-style: none; padding-left: 15px;&quot;&gt;&lt;br&gt;&lt;/td&gt;&lt;/tr&gt;&lt;/tbody&gt;&lt;/table&gt;" style="shape=partialRectangle;connectable=0;fillColor=none;top=0;left=0;bottom=0;right=0;align=left;spacingLeft=6;overflow=hidden;whiteSpace=wrap;html=1;strokeColor=#D0CEE2;fontColor=#1A1A1A;" vertex="1" parent="vUsgY7-ng19fCDbpC5KG-187">
          <mxGeometry x="30" width="220" height="30" as="geometry">
            <mxRectangle width="220" height="30" as="alternateBounds" />
          </mxGeometry>
        </mxCell>
        <mxCell id="vUsgY7-ng19fCDbpC5KG-190" value="" style="shape=tableRow;horizontal=0;startSize=0;swimlaneHead=0;swimlaneBody=0;fillColor=none;collapsible=0;dropTarget=0;points=[[0,0.5],[1,0.5]];portConstraint=eastwest;top=0;left=0;right=0;bottom=0;strokeColor=#D0CEE2;fontColor=#1A1A1A;" vertex="1" parent="vUsgY7-ng19fCDbpC5KG-96">
          <mxGeometry y="140" width="250" height="30" as="geometry" />
        </mxCell>
        <mxCell id="vUsgY7-ng19fCDbpC5KG-191" value="" style="shape=partialRectangle;connectable=0;fillColor=none;top=0;left=0;bottom=0;right=0;editable=1;overflow=hidden;whiteSpace=wrap;html=1;strokeColor=#D0CEE2;fontColor=#1A1A1A;" vertex="1" parent="vUsgY7-ng19fCDbpC5KG-190">
          <mxGeometry width="30" height="30" as="geometry">
            <mxRectangle width="30" height="30" as="alternateBounds" />
          </mxGeometry>
        </mxCell>
        <mxCell id="vUsgY7-ng19fCDbpC5KG-192" value="&lt;div&gt;&lt;br&gt;&lt;/div&gt;address varchar(128) not null&lt;div&gt;&lt;br&gt;&lt;/div&gt;" style="shape=partialRectangle;connectable=0;fillColor=none;top=0;left=0;bottom=0;right=0;align=left;spacingLeft=6;overflow=hidden;whiteSpace=wrap;html=1;strokeColor=#D0CEE2;fontColor=#1A1A1A;" vertex="1" parent="vUsgY7-ng19fCDbpC5KG-190">
          <mxGeometry x="30" width="220" height="30" as="geometry">
            <mxRectangle width="220" height="30" as="alternateBounds" />
          </mxGeometry>
        </mxCell>
        <mxCell id="vUsgY7-ng19fCDbpC5KG-106" value="" style="shape=tableRow;horizontal=0;startSize=0;swimlaneHead=0;swimlaneBody=0;fillColor=none;collapsible=0;dropTarget=0;points=[[0,0.5],[1,0.5]];portConstraint=eastwest;top=0;left=0;right=0;bottom=0;strokeColor=#D0CEE2;fontColor=#1A1A1A;" vertex="1" parent="vUsgY7-ng19fCDbpC5KG-96">
          <mxGeometry y="170" width="250" height="30" as="geometry" />
        </mxCell>
        <mxCell id="vUsgY7-ng19fCDbpC5KG-107" value="" style="shape=partialRectangle;connectable=0;fillColor=none;top=0;left=0;bottom=0;right=0;editable=1;overflow=hidden;whiteSpace=wrap;html=1;strokeColor=#D0CEE2;fontColor=#1A1A1A;" vertex="1" parent="vUsgY7-ng19fCDbpC5KG-106">
          <mxGeometry width="30" height="30" as="geometry">
            <mxRectangle width="30" height="30" as="alternateBounds" />
          </mxGeometry>
        </mxCell>
        <mxCell id="vUsgY7-ng19fCDbpC5KG-108" value="&lt;div&gt;&lt;br&gt;&lt;/div&gt;city varchar(30) not null" style="shape=partialRectangle;connectable=0;fillColor=none;top=0;left=0;bottom=0;right=0;align=left;spacingLeft=6;overflow=hidden;whiteSpace=wrap;html=1;strokeColor=#D0CEE2;fontColor=#1A1A1A;" vertex="1" parent="vUsgY7-ng19fCDbpC5KG-106">
          <mxGeometry x="30" width="220" height="30" as="geometry">
            <mxRectangle width="220" height="30" as="alternateBounds" />
          </mxGeometry>
        </mxCell>
        <mxCell id="vUsgY7-ng19fCDbpC5KG-193" value="" style="shape=tableRow;horizontal=0;startSize=0;swimlaneHead=0;swimlaneBody=0;fillColor=none;collapsible=0;dropTarget=0;points=[[0,0.5],[1,0.5]];portConstraint=eastwest;top=0;left=0;right=0;bottom=0;strokeColor=#D0CEE2;fontColor=#1A1A1A;" vertex="1" parent="vUsgY7-ng19fCDbpC5KG-96">
          <mxGeometry y="200" width="250" height="30" as="geometry" />
        </mxCell>
        <mxCell id="vUsgY7-ng19fCDbpC5KG-194" value="" style="shape=partialRectangle;connectable=0;fillColor=none;top=0;left=0;bottom=0;right=0;editable=1;overflow=hidden;whiteSpace=wrap;html=1;strokeColor=#D0CEE2;fontColor=#1A1A1A;" vertex="1" parent="vUsgY7-ng19fCDbpC5KG-193">
          <mxGeometry width="30" height="30" as="geometry">
            <mxRectangle width="30" height="30" as="alternateBounds" />
          </mxGeometry>
        </mxCell>
        <mxCell id="vUsgY7-ng19fCDbpC5KG-195" value="&lt;div&gt;&lt;br&gt;&lt;/div&gt;country varchar(30)" style="shape=partialRectangle;connectable=0;fillColor=none;top=0;left=0;bottom=0;right=0;align=left;spacingLeft=6;overflow=hidden;whiteSpace=wrap;html=1;strokeColor=#D0CEE2;fontColor=#1A1A1A;" vertex="1" parent="vUsgY7-ng19fCDbpC5KG-193">
          <mxGeometry x="30" width="220" height="30" as="geometry">
            <mxRectangle width="220" height="30" as="alternateBounds" />
          </mxGeometry>
        </mxCell>
        <mxCell id="vUsgY7-ng19fCDbpC5KG-196" value="" style="shape=tableRow;horizontal=0;startSize=0;swimlaneHead=0;swimlaneBody=0;fillColor=none;collapsible=0;dropTarget=0;points=[[0,0.5],[1,0.5]];portConstraint=eastwest;top=0;left=0;right=0;bottom=0;strokeColor=#D0CEE2;fontColor=#1A1A1A;" vertex="1" parent="vUsgY7-ng19fCDbpC5KG-96">
          <mxGeometry y="230" width="250" height="30" as="geometry" />
        </mxCell>
        <mxCell id="vUsgY7-ng19fCDbpC5KG-197" value="&lt;div&gt;&lt;font color=&quot;#0000ff&quot;&gt;&lt;b&gt;&lt;br&gt;&lt;/b&gt;&lt;/font&gt;&lt;/div&gt;&lt;font color=&quot;#0000ff&quot;&gt;&lt;b&gt;FK&lt;/b&gt;&lt;/font&gt;" style="shape=partialRectangle;connectable=0;fillColor=none;top=0;left=0;bottom=0;right=0;editable=1;overflow=hidden;whiteSpace=wrap;html=1;strokeColor=#D0CEE2;fontColor=#1A1A1A;" vertex="1" parent="vUsgY7-ng19fCDbpC5KG-196">
          <mxGeometry width="30" height="30" as="geometry">
            <mxRectangle width="30" height="30" as="alternateBounds" />
          </mxGeometry>
        </mxCell>
        <mxCell id="vUsgY7-ng19fCDbpC5KG-198" value="&lt;div&gt;&lt;/div&gt;&lt;div&gt;&lt;b&gt;&lt;font color=&quot;#0000ff&quot;&gt;&lt;br&gt;&lt;/font&gt;&lt;/b&gt;&lt;/div&gt;&lt;div&gt;&lt;font style=&quot;&quot; color=&quot;#0000ff&quot;&gt;&lt;b&gt;resorts to &lt;/b&gt;int&lt;/font&gt;&lt;/div&gt;" style="shape=partialRectangle;connectable=0;fillColor=none;top=0;left=0;bottom=0;right=0;align=left;spacingLeft=6;overflow=hidden;whiteSpace=wrap;html=1;strokeColor=#D0CEE2;fontColor=#1A1A1A;" vertex="1" parent="vUsgY7-ng19fCDbpC5KG-196">
          <mxGeometry x="30" width="220" height="30" as="geometry">
            <mxRectangle width="220" height="30" as="alternateBounds" />
          </mxGeometry>
        </mxCell>
        <mxCell id="vUsgY7-ng19fCDbpC5KG-109" value="Customer" style="shape=table;startSize=30;container=1;collapsible=1;childLayout=tableLayout;fixedRows=1;rowLines=0;fontStyle=1;align=center;resizeLast=1;html=1;strokeColor=#D0CEE2;fontColor=#1A1A1A;fillColor=#5D7F99;perimeterSpacing=3;" vertex="1" parent="1">
          <mxGeometry x="20" y="220" width="249" height="251" as="geometry" />
        </mxCell>
        <mxCell id="vUsgY7-ng19fCDbpC5KG-110" value="" style="shape=tableRow;horizontal=0;startSize=0;swimlaneHead=0;swimlaneBody=0;fillColor=none;collapsible=0;dropTarget=0;points=[[0,0.5],[1,0.5]];portConstraint=eastwest;top=0;left=0;right=0;bottom=1;strokeColor=#D0CEE2;fontColor=#1A1A1A;" vertex="1" parent="vUsgY7-ng19fCDbpC5KG-109">
          <mxGeometry y="30" width="249" height="30" as="geometry" />
        </mxCell>
        <mxCell id="vUsgY7-ng19fCDbpC5KG-111" value="PK" style="shape=partialRectangle;connectable=0;fillColor=none;top=0;left=0;bottom=0;right=0;fontStyle=1;overflow=hidden;whiteSpace=wrap;html=1;strokeColor=#D0CEE2;fontColor=#1A1A1A;" vertex="1" parent="vUsgY7-ng19fCDbpC5KG-110">
          <mxGeometry width="30" height="30" as="geometry">
            <mxRectangle width="30" height="30" as="alternateBounds" />
          </mxGeometry>
        </mxCell>
        <mxCell id="vUsgY7-ng19fCDbpC5KG-112" value="&lt;u&gt;customer_id&amp;nbsp;&lt;/u&gt;&lt;u style=&quot;font-weight: 400;&quot;&gt;not null&lt;/u&gt;" style="shape=partialRectangle;connectable=0;fillColor=none;top=0;left=0;bottom=0;right=0;align=left;spacingLeft=6;fontStyle=5;overflow=hidden;whiteSpace=wrap;html=1;strokeColor=#D0CEE2;fontColor=#1A1A1A;" vertex="1" parent="vUsgY7-ng19fCDbpC5KG-110">
          <mxGeometry x="30" width="219" height="30" as="geometry">
            <mxRectangle width="219" height="30" as="alternateBounds" />
          </mxGeometry>
        </mxCell>
        <mxCell id="vUsgY7-ng19fCDbpC5KG-113" value="" style="shape=tableRow;horizontal=0;startSize=0;swimlaneHead=0;swimlaneBody=0;fillColor=none;collapsible=0;dropTarget=0;points=[[0,0.5],[1,0.5]];portConstraint=eastwest;top=0;left=0;right=0;bottom=0;strokeColor=#D0CEE2;fontColor=#1A1A1A;" vertex="1" parent="vUsgY7-ng19fCDbpC5KG-109">
          <mxGeometry y="60" width="249" height="31" as="geometry" />
        </mxCell>
        <mxCell id="vUsgY7-ng19fCDbpC5KG-114" value="" style="shape=partialRectangle;connectable=0;fillColor=none;top=0;left=0;bottom=0;right=0;editable=1;overflow=hidden;whiteSpace=wrap;html=1;strokeColor=#D0CEE2;fontColor=#1A1A1A;" vertex="1" parent="vUsgY7-ng19fCDbpC5KG-113">
          <mxGeometry width="30" height="31" as="geometry">
            <mxRectangle width="30" height="31" as="alternateBounds" />
          </mxGeometry>
        </mxCell>
        <mxCell id="vUsgY7-ng19fCDbpC5KG-115" value="contact_name&amp;nbsp;&lt;font color=&quot;#717171&quot;&gt;varchar(30)&amp;nbsp;&lt;/font&gt;&lt;u&gt;not null&lt;/u&gt;" style="shape=partialRectangle;connectable=0;fillColor=none;top=0;left=0;bottom=0;right=0;align=left;spacingLeft=6;overflow=hidden;whiteSpace=wrap;html=1;strokeColor=#D0CEE2;fontColor=#1A1A1A;" vertex="1" parent="vUsgY7-ng19fCDbpC5KG-113">
          <mxGeometry x="30" width="219" height="31" as="geometry">
            <mxRectangle width="219" height="31" as="alternateBounds" />
          </mxGeometry>
        </mxCell>
        <mxCell id="vUsgY7-ng19fCDbpC5KG-116" value="" style="shape=tableRow;horizontal=0;startSize=0;swimlaneHead=0;swimlaneBody=0;fillColor=none;collapsible=0;dropTarget=0;points=[[0,0.5],[1,0.5]];portConstraint=eastwest;top=0;left=0;right=0;bottom=0;strokeColor=#D0CEE2;fontColor=#1A1A1A;" vertex="1" parent="vUsgY7-ng19fCDbpC5KG-109">
          <mxGeometry y="91" width="249" height="40" as="geometry" />
        </mxCell>
        <mxCell id="vUsgY7-ng19fCDbpC5KG-117" value="" style="shape=partialRectangle;connectable=0;fillColor=none;top=0;left=0;bottom=0;right=0;editable=1;overflow=hidden;whiteSpace=wrap;html=1;strokeColor=#D0CEE2;fontColor=#1A1A1A;" vertex="1" parent="vUsgY7-ng19fCDbpC5KG-116">
          <mxGeometry width="30" height="40" as="geometry">
            <mxRectangle width="30" height="40" as="alternateBounds" />
          </mxGeometry>
        </mxCell>
        <mxCell id="vUsgY7-ng19fCDbpC5KG-118" value="company_name&amp;nbsp;&lt;font color=&quot;#717171&quot;&gt;varchar(40)&amp;nbsp;&lt;/font&gt;&lt;u&gt;not null&lt;/u&gt;" style="shape=partialRectangle;connectable=0;fillColor=none;top=0;left=0;bottom=0;right=0;align=left;spacingLeft=6;overflow=hidden;whiteSpace=wrap;html=1;strokeColor=#D0CEE2;fontColor=#1A1A1A;" vertex="1" parent="vUsgY7-ng19fCDbpC5KG-116">
          <mxGeometry x="30" width="219" height="40" as="geometry">
            <mxRectangle width="219" height="40" as="alternateBounds" />
          </mxGeometry>
        </mxCell>
        <mxCell id="vUsgY7-ng19fCDbpC5KG-178" value="" style="shape=tableRow;horizontal=0;startSize=0;swimlaneHead=0;swimlaneBody=0;fillColor=none;collapsible=0;dropTarget=0;points=[[0,0.5],[1,0.5]];portConstraint=eastwest;top=0;left=0;right=0;bottom=0;strokeColor=#D0CEE2;fontColor=#1A1A1A;" vertex="1" parent="vUsgY7-ng19fCDbpC5KG-109">
          <mxGeometry y="131" width="249" height="30" as="geometry" />
        </mxCell>
        <mxCell id="vUsgY7-ng19fCDbpC5KG-179" value="" style="shape=partialRectangle;connectable=0;fillColor=none;top=0;left=0;bottom=0;right=0;editable=1;overflow=hidden;whiteSpace=wrap;html=1;strokeColor=#D0CEE2;fontColor=#1A1A1A;" vertex="1" parent="vUsgY7-ng19fCDbpC5KG-178">
          <mxGeometry width="30" height="30" as="geometry">
            <mxRectangle width="30" height="30" as="alternateBounds" />
          </mxGeometry>
        </mxCell>
        <mxCell id="vUsgY7-ng19fCDbpC5KG-180" value="contact_email&amp;nbsp;&lt;font color=&quot;#717171&quot;&gt;varchar(128)&amp;nbsp;&lt;/font&gt;&lt;u&gt;not null&lt;/u&gt;" style="shape=partialRectangle;connectable=0;fillColor=none;top=0;left=0;bottom=0;right=0;align=left;spacingLeft=6;overflow=hidden;whiteSpace=wrap;html=1;strokeColor=#D0CEE2;fontColor=#1A1A1A;" vertex="1" parent="vUsgY7-ng19fCDbpC5KG-178">
          <mxGeometry x="30" width="219" height="30" as="geometry">
            <mxRectangle width="219" height="30" as="alternateBounds" />
          </mxGeometry>
        </mxCell>
        <mxCell id="vUsgY7-ng19fCDbpC5KG-181" value="" style="shape=tableRow;horizontal=0;startSize=0;swimlaneHead=0;swimlaneBody=0;fillColor=none;collapsible=0;dropTarget=0;points=[[0,0.5],[1,0.5]];portConstraint=eastwest;top=0;left=0;right=0;bottom=0;strokeColor=#D0CEE2;fontColor=#1A1A1A;" vertex="1" parent="vUsgY7-ng19fCDbpC5KG-109">
          <mxGeometry y="161" width="249" height="30" as="geometry" />
        </mxCell>
        <mxCell id="vUsgY7-ng19fCDbpC5KG-182" value="" style="shape=partialRectangle;connectable=0;fillColor=none;top=0;left=0;bottom=0;right=0;editable=1;overflow=hidden;whiteSpace=wrap;html=1;strokeColor=#D0CEE2;fontColor=#1A1A1A;" vertex="1" parent="vUsgY7-ng19fCDbpC5KG-181">
          <mxGeometry width="30" height="30" as="geometry">
            <mxRectangle width="30" height="30" as="alternateBounds" />
          </mxGeometry>
        </mxCell>
        <mxCell id="vUsgY7-ng19fCDbpC5KG-183" value="address&amp;nbsp;&lt;font color=&quot;#717171&quot;&gt;varchar(120)&amp;nbsp;&lt;/font&gt;&lt;u&gt;not null&lt;/u&gt;" style="shape=partialRectangle;connectable=0;fillColor=none;top=0;left=0;bottom=0;right=0;align=left;spacingLeft=6;overflow=hidden;whiteSpace=wrap;html=1;strokeColor=#D0CEE2;fontColor=#1A1A1A;" vertex="1" parent="vUsgY7-ng19fCDbpC5KG-181">
          <mxGeometry x="30" width="219" height="30" as="geometry">
            <mxRectangle width="219" height="30" as="alternateBounds" />
          </mxGeometry>
        </mxCell>
        <mxCell id="vUsgY7-ng19fCDbpC5KG-184" value="" style="shape=tableRow;horizontal=0;startSize=0;swimlaneHead=0;swimlaneBody=0;fillColor=none;collapsible=0;dropTarget=0;points=[[0,0.5],[1,0.5]];portConstraint=eastwest;top=0;left=0;right=0;bottom=0;strokeColor=#D0CEE2;fontColor=#1A1A1A;" vertex="1" parent="vUsgY7-ng19fCDbpC5KG-109">
          <mxGeometry y="191" width="249" height="30" as="geometry" />
        </mxCell>
        <mxCell id="vUsgY7-ng19fCDbpC5KG-185" value="" style="shape=partialRectangle;connectable=0;fillColor=none;top=0;left=0;bottom=0;right=0;editable=1;overflow=hidden;whiteSpace=wrap;html=1;strokeColor=#D0CEE2;fontColor=#1A1A1A;" vertex="1" parent="vUsgY7-ng19fCDbpC5KG-184">
          <mxGeometry width="30" height="30" as="geometry">
            <mxRectangle width="30" height="30" as="alternateBounds" />
          </mxGeometry>
        </mxCell>
        <mxCell id="vUsgY7-ng19fCDbpC5KG-186" value="city&amp;nbsp;&lt;font color=&quot;#717171&quot;&gt;varchar(30)&amp;nbsp;&lt;/font&gt;&lt;u&gt;not null&lt;/u&gt;" style="shape=partialRectangle;connectable=0;fillColor=none;top=0;left=0;bottom=0;right=0;align=left;spacingLeft=6;overflow=hidden;whiteSpace=wrap;html=1;strokeColor=#D0CEE2;fontColor=#1A1A1A;" vertex="1" parent="vUsgY7-ng19fCDbpC5KG-184">
          <mxGeometry x="30" width="219" height="30" as="geometry">
            <mxRectangle width="219" height="30" as="alternateBounds" />
          </mxGeometry>
        </mxCell>
        <mxCell id="vUsgY7-ng19fCDbpC5KG-119" value="" style="shape=tableRow;horizontal=0;startSize=0;swimlaneHead=0;swimlaneBody=0;fillColor=none;collapsible=0;dropTarget=0;points=[[0,0.5],[1,0.5]];portConstraint=eastwest;top=0;left=0;right=0;bottom=0;strokeColor=#D0CEE2;fontColor=#1A1A1A;" vertex="1" parent="vUsgY7-ng19fCDbpC5KG-109">
          <mxGeometry y="221" width="249" height="30" as="geometry" />
        </mxCell>
        <mxCell id="vUsgY7-ng19fCDbpC5KG-120" value="" style="shape=partialRectangle;connectable=0;fillColor=none;top=0;left=0;bottom=0;right=0;editable=1;overflow=hidden;whiteSpace=wrap;html=1;strokeColor=#D0CEE2;fontColor=#1A1A1A;" vertex="1" parent="vUsgY7-ng19fCDbpC5KG-119">
          <mxGeometry width="30" height="30" as="geometry">
            <mxRectangle width="30" height="30" as="alternateBounds" />
          </mxGeometry>
        </mxCell>
        <mxCell id="vUsgY7-ng19fCDbpC5KG-121" value="country&amp;nbsp;&lt;font color=&quot;#717171&quot;&gt;varchar(30)&amp;nbsp;&lt;/font&gt;&lt;u&gt;not null&lt;/u&gt;" style="shape=partialRectangle;connectable=0;fillColor=none;top=0;left=0;bottom=0;right=0;align=left;spacingLeft=6;overflow=hidden;whiteSpace=wrap;html=1;strokeColor=#D0CEE2;fontColor=#1A1A1A;" vertex="1" parent="vUsgY7-ng19fCDbpC5KG-119">
          <mxGeometry x="30" width="219" height="30" as="geometry">
            <mxRectangle width="219" height="30" as="alternateBounds" />
          </mxGeometry>
        </mxCell>
        <mxCell id="vUsgY7-ng19fCDbpC5KG-537" value="Purchase" style="shape=table;startSize=30;container=1;collapsible=1;childLayout=tableLayout;fixedRows=1;rowLines=0;fontStyle=1;align=center;resizeLast=1;html=1;strokeColor=#D0CEE2;fontColor=#1A1A1A;fillColor=#5D7F99;perimeterSpacing=3;" vertex="1" parent="1">
          <mxGeometry x="390" y="230" width="249" height="308" as="geometry" />
        </mxCell>
        <mxCell id="vUsgY7-ng19fCDbpC5KG-538" value="" style="shape=tableRow;horizontal=0;startSize=0;swimlaneHead=0;swimlaneBody=0;fillColor=none;collapsible=0;dropTarget=0;points=[[0,0.5],[1,0.5]];portConstraint=eastwest;top=0;left=0;right=0;bottom=1;strokeColor=#D0CEE2;fontColor=#1A1A1A;" vertex="1" parent="vUsgY7-ng19fCDbpC5KG-537">
          <mxGeometry y="30" width="249" height="30" as="geometry" />
        </mxCell>
        <mxCell id="vUsgY7-ng19fCDbpC5KG-539" value="PK" style="shape=partialRectangle;connectable=0;fillColor=none;top=0;left=0;bottom=0;right=0;fontStyle=1;overflow=hidden;whiteSpace=wrap;html=1;strokeColor=#D0CEE2;fontColor=#1A1A1A;" vertex="1" parent="vUsgY7-ng19fCDbpC5KG-538">
          <mxGeometry width="30" height="30" as="geometry">
            <mxRectangle width="30" height="30" as="alternateBounds" />
          </mxGeometry>
        </mxCell>
        <mxCell id="vUsgY7-ng19fCDbpC5KG-540" value="&lt;u&gt;purchase_id&lt;/u&gt;&lt;u&gt;&amp;nbsp;&lt;/u&gt;&lt;u style=&quot;font-weight: 400;&quot;&gt;not null&lt;/u&gt;" style="shape=partialRectangle;connectable=0;fillColor=none;top=0;left=0;bottom=0;right=0;align=left;spacingLeft=6;fontStyle=5;overflow=hidden;whiteSpace=wrap;html=1;strokeColor=#D0CEE2;fontColor=#1A1A1A;" vertex="1" parent="vUsgY7-ng19fCDbpC5KG-538">
          <mxGeometry x="30" width="219" height="30" as="geometry">
            <mxRectangle width="219" height="30" as="alternateBounds" />
          </mxGeometry>
        </mxCell>
        <mxCell id="vUsgY7-ng19fCDbpC5KG-541" value="" style="shape=tableRow;horizontal=0;startSize=0;swimlaneHead=0;swimlaneBody=0;fillColor=none;collapsible=0;dropTarget=0;points=[[0,0.5],[1,0.5]];portConstraint=eastwest;top=0;left=0;right=0;bottom=0;strokeColor=#D0CEE2;fontColor=#1A1A1A;" vertex="1" parent="vUsgY7-ng19fCDbpC5KG-537">
          <mxGeometry y="60" width="249" height="31" as="geometry" />
        </mxCell>
        <mxCell id="vUsgY7-ng19fCDbpC5KG-542" value="&lt;b&gt;&lt;font color=&quot;#0000ff&quot;&gt;FK&lt;/font&gt;&lt;/b&gt;" style="shape=partialRectangle;connectable=0;fillColor=none;top=0;left=0;bottom=0;right=0;editable=1;overflow=hidden;whiteSpace=wrap;html=1;strokeColor=#D0CEE2;fontColor=#1A1A1A;" vertex="1" parent="vUsgY7-ng19fCDbpC5KG-541">
          <mxGeometry width="30" height="31" as="geometry">
            <mxRectangle width="30" height="31" as="alternateBounds" />
          </mxGeometry>
        </mxCell>
        <mxCell id="vUsgY7-ng19fCDbpC5KG-543" value="&lt;font color=&quot;#0000ff&quot;&gt;&lt;b&gt;customer_id&lt;/b&gt;&amp;nbsp;int&amp;nbsp;&lt;/font&gt;" style="shape=partialRectangle;connectable=0;fillColor=none;top=0;left=0;bottom=0;right=0;align=left;spacingLeft=6;overflow=hidden;whiteSpace=wrap;html=1;strokeColor=#D0CEE2;fontColor=#1A1A1A;" vertex="1" parent="vUsgY7-ng19fCDbpC5KG-541">
          <mxGeometry x="30" width="219" height="31" as="geometry">
            <mxRectangle width="219" height="31" as="alternateBounds" />
          </mxGeometry>
        </mxCell>
        <mxCell id="vUsgY7-ng19fCDbpC5KG-544" value="" style="shape=tableRow;horizontal=0;startSize=0;swimlaneHead=0;swimlaneBody=0;fillColor=none;collapsible=0;dropTarget=0;points=[[0,0.5],[1,0.5]];portConstraint=eastwest;top=0;left=0;right=0;bottom=0;strokeColor=#D0CEE2;fontColor=#1A1A1A;" vertex="1" parent="vUsgY7-ng19fCDbpC5KG-537">
          <mxGeometry y="91" width="249" height="40" as="geometry" />
        </mxCell>
        <mxCell id="vUsgY7-ng19fCDbpC5KG-545" value="&lt;b&gt;&lt;font color=&quot;#0000ff&quot;&gt;FK&lt;/font&gt;&lt;/b&gt;" style="shape=partialRectangle;connectable=0;fillColor=none;top=0;left=0;bottom=0;right=0;editable=1;overflow=hidden;whiteSpace=wrap;html=1;strokeColor=#D0CEE2;fontColor=#1A1A1A;" vertex="1" parent="vUsgY7-ng19fCDbpC5KG-544">
          <mxGeometry width="30" height="40" as="geometry">
            <mxRectangle width="30" height="40" as="alternateBounds" />
          </mxGeometry>
        </mxCell>
        <mxCell id="vUsgY7-ng19fCDbpC5KG-546" value="&lt;font style=&quot;&quot; color=&quot;#0000ff&quot;&gt;&lt;b&gt;employee_id &lt;/b&gt;int&lt;/font&gt;" style="shape=partialRectangle;connectable=0;fillColor=none;top=0;left=0;bottom=0;right=0;align=left;spacingLeft=6;overflow=hidden;whiteSpace=wrap;html=1;strokeColor=#D0CEE2;fontColor=#1A1A1A;" vertex="1" parent="vUsgY7-ng19fCDbpC5KG-544">
          <mxGeometry x="30" width="219" height="40" as="geometry">
            <mxRectangle width="219" height="40" as="alternateBounds" />
          </mxGeometry>
        </mxCell>
        <mxCell id="vUsgY7-ng19fCDbpC5KG-547" value="" style="shape=tableRow;horizontal=0;startSize=0;swimlaneHead=0;swimlaneBody=0;fillColor=none;collapsible=0;dropTarget=0;points=[[0,0.5],[1,0.5]];portConstraint=eastwest;top=0;left=0;right=0;bottom=0;strokeColor=#D0CEE2;fontColor=#1A1A1A;" vertex="1" parent="vUsgY7-ng19fCDbpC5KG-537">
          <mxGeometry y="131" width="249" height="30" as="geometry" />
        </mxCell>
        <mxCell id="vUsgY7-ng19fCDbpC5KG-548" value="" style="shape=partialRectangle;connectable=0;fillColor=none;top=0;left=0;bottom=0;right=0;editable=1;overflow=hidden;whiteSpace=wrap;html=1;strokeColor=#D0CEE2;fontColor=#1A1A1A;" vertex="1" parent="vUsgY7-ng19fCDbpC5KG-547">
          <mxGeometry width="30" height="30" as="geometry">
            <mxRectangle width="30" height="30" as="alternateBounds" />
          </mxGeometry>
        </mxCell>
        <mxCell id="vUsgY7-ng19fCDbpC5KG-549" value="total_price double" style="shape=partialRectangle;connectable=0;fillColor=none;top=0;left=0;bottom=0;right=0;align=left;spacingLeft=6;overflow=hidden;whiteSpace=wrap;html=1;strokeColor=#D0CEE2;fontColor=#1A1A1A;" vertex="1" parent="vUsgY7-ng19fCDbpC5KG-547">
          <mxGeometry x="30" width="219" height="30" as="geometry">
            <mxRectangle width="219" height="30" as="alternateBounds" />
          </mxGeometry>
        </mxCell>
        <mxCell id="vUsgY7-ng19fCDbpC5KG-550" value="" style="shape=tableRow;horizontal=0;startSize=0;swimlaneHead=0;swimlaneBody=0;fillColor=none;collapsible=0;dropTarget=0;points=[[0,0.5],[1,0.5]];portConstraint=eastwest;top=0;left=0;right=0;bottom=0;strokeColor=#D0CEE2;fontColor=#1A1A1A;" vertex="1" parent="vUsgY7-ng19fCDbpC5KG-537">
          <mxGeometry y="161" width="249" height="30" as="geometry" />
        </mxCell>
        <mxCell id="vUsgY7-ng19fCDbpC5KG-551" value="" style="shape=partialRectangle;connectable=0;fillColor=none;top=0;left=0;bottom=0;right=0;editable=1;overflow=hidden;whiteSpace=wrap;html=1;strokeColor=#D0CEE2;fontColor=#1A1A1A;" vertex="1" parent="vUsgY7-ng19fCDbpC5KG-550">
          <mxGeometry width="30" height="30" as="geometry">
            <mxRectangle width="30" height="30" as="alternateBounds" />
          </mxGeometry>
        </mxCell>
        <mxCell id="vUsgY7-ng19fCDbpC5KG-552" value="purchase_data timestap not null" style="shape=partialRectangle;connectable=0;fillColor=none;top=0;left=0;bottom=0;right=0;align=left;spacingLeft=6;overflow=hidden;whiteSpace=wrap;html=1;strokeColor=#D0CEE2;fontColor=#1A1A1A;" vertex="1" parent="vUsgY7-ng19fCDbpC5KG-550">
          <mxGeometry x="30" width="219" height="30" as="geometry">
            <mxRectangle width="219" height="30" as="alternateBounds" />
          </mxGeometry>
        </mxCell>
        <mxCell id="vUsgY7-ng19fCDbpC5KG-553" value="" style="shape=tableRow;horizontal=0;startSize=0;swimlaneHead=0;swimlaneBody=0;fillColor=none;collapsible=0;dropTarget=0;points=[[0,0.5],[1,0.5]];portConstraint=eastwest;top=0;left=0;right=0;bottom=0;strokeColor=#D0CEE2;fontColor=#1A1A1A;" vertex="1" parent="vUsgY7-ng19fCDbpC5KG-537">
          <mxGeometry y="191" width="249" height="30" as="geometry" />
        </mxCell>
        <mxCell id="vUsgY7-ng19fCDbpC5KG-554" value="" style="shape=partialRectangle;connectable=0;fillColor=none;top=0;left=0;bottom=0;right=0;editable=1;overflow=hidden;whiteSpace=wrap;html=1;strokeColor=#D0CEE2;fontColor=#1A1A1A;" vertex="1" parent="vUsgY7-ng19fCDbpC5KG-553">
          <mxGeometry width="30" height="30" as="geometry">
            <mxRectangle width="30" height="30" as="alternateBounds" />
          </mxGeometry>
        </mxCell>
        <mxCell id="vUsgY7-ng19fCDbpC5KG-555" value="shipped_data timestap not null" style="shape=partialRectangle;connectable=0;fillColor=none;top=0;left=0;bottom=0;right=0;align=left;spacingLeft=6;overflow=hidden;whiteSpace=wrap;html=1;strokeColor=#D0CEE2;fontColor=#1A1A1A;" vertex="1" parent="vUsgY7-ng19fCDbpC5KG-553">
          <mxGeometry x="30" width="219" height="30" as="geometry">
            <mxRectangle width="219" height="30" as="alternateBounds" />
          </mxGeometry>
        </mxCell>
        <mxCell id="vUsgY7-ng19fCDbpC5KG-556" value="" style="shape=tableRow;horizontal=0;startSize=0;swimlaneHead=0;swimlaneBody=0;fillColor=none;collapsible=0;dropTarget=0;points=[[0,0.5],[1,0.5]];portConstraint=eastwest;top=0;left=0;right=0;bottom=0;strokeColor=#D0CEE2;fontColor=#1A1A1A;" vertex="1" parent="vUsgY7-ng19fCDbpC5KG-537">
          <mxGeometry y="221" width="249" height="29" as="geometry" />
        </mxCell>
        <mxCell id="vUsgY7-ng19fCDbpC5KG-557" value="" style="shape=partialRectangle;connectable=0;fillColor=none;top=0;left=0;bottom=0;right=0;editable=1;overflow=hidden;whiteSpace=wrap;html=1;strokeColor=#D0CEE2;fontColor=#1A1A1A;" vertex="1" parent="vUsgY7-ng19fCDbpC5KG-556">
          <mxGeometry width="30" height="29" as="geometry">
            <mxRectangle width="30" height="29" as="alternateBounds" />
          </mxGeometry>
        </mxCell>
        <mxCell id="vUsgY7-ng19fCDbpC5KG-558" value="ship_addres varchar(60) not null" style="shape=partialRectangle;connectable=0;fillColor=none;top=0;left=0;bottom=0;right=0;align=left;spacingLeft=6;overflow=hidden;whiteSpace=wrap;html=1;strokeColor=#D0CEE2;fontColor=#1A1A1A;" vertex="1" parent="vUsgY7-ng19fCDbpC5KG-556">
          <mxGeometry x="30" width="219" height="29" as="geometry">
            <mxRectangle width="219" height="29" as="alternateBounds" />
          </mxGeometry>
        </mxCell>
        <mxCell id="J0RzfSza5QBcRtgYa5vt-1" value="" style="shape=tableRow;horizontal=0;startSize=0;swimlaneHead=0;swimlaneBody=0;fillColor=none;collapsible=0;dropTarget=0;points=[[0,0.5],[1,0.5]];portConstraint=eastwest;top=0;left=0;right=0;bottom=0;strokeColor=#D0CEE2;fontColor=#1A1A1A;" vertex="1" parent="vUsgY7-ng19fCDbpC5KG-537">
          <mxGeometry y="250" width="249" height="29" as="geometry" />
        </mxCell>
        <mxCell id="J0RzfSza5QBcRtgYa5vt-2" value="" style="shape=partialRectangle;connectable=0;fillColor=none;top=0;left=0;bottom=0;right=0;editable=1;overflow=hidden;whiteSpace=wrap;html=1;strokeColor=#D0CEE2;fontColor=#1A1A1A;" vertex="1" parent="J0RzfSza5QBcRtgYa5vt-1">
          <mxGeometry width="30" height="29" as="geometry">
            <mxRectangle width="30" height="29" as="alternateBounds" />
          </mxGeometry>
        </mxCell>
        <mxCell id="J0RzfSza5QBcRtgYa5vt-3" value="ship_city varchar(15) not null" style="shape=partialRectangle;connectable=0;fillColor=none;top=0;left=0;bottom=0;right=0;align=left;spacingLeft=6;overflow=hidden;whiteSpace=wrap;html=1;strokeColor=#D0CEE2;fontColor=#1A1A1A;" vertex="1" parent="J0RzfSza5QBcRtgYa5vt-1">
          <mxGeometry x="30" width="219" height="29" as="geometry">
            <mxRectangle width="219" height="29" as="alternateBounds" />
          </mxGeometry>
        </mxCell>
        <mxCell id="J0RzfSza5QBcRtgYa5vt-4" value="" style="shape=tableRow;horizontal=0;startSize=0;swimlaneHead=0;swimlaneBody=0;fillColor=none;collapsible=0;dropTarget=0;points=[[0,0.5],[1,0.5]];portConstraint=eastwest;top=0;left=0;right=0;bottom=0;strokeColor=#D0CEE2;fontColor=#1A1A1A;" vertex="1" parent="vUsgY7-ng19fCDbpC5KG-537">
          <mxGeometry y="279" width="249" height="29" as="geometry" />
        </mxCell>
        <mxCell id="J0RzfSza5QBcRtgYa5vt-5" value="" style="shape=partialRectangle;connectable=0;fillColor=none;top=0;left=0;bottom=0;right=0;editable=1;overflow=hidden;whiteSpace=wrap;html=1;strokeColor=#D0CEE2;fontColor=#1A1A1A;" vertex="1" parent="J0RzfSza5QBcRtgYa5vt-4">
          <mxGeometry width="30" height="29" as="geometry">
            <mxRectangle width="30" height="29" as="alternateBounds" />
          </mxGeometry>
        </mxCell>
        <mxCell id="J0RzfSza5QBcRtgYa5vt-6" value="ship_country varchar(15) not null" style="shape=partialRectangle;connectable=0;fillColor=none;top=0;left=0;bottom=0;right=0;align=left;spacingLeft=6;overflow=hidden;whiteSpace=wrap;html=1;strokeColor=#D0CEE2;fontColor=#1A1A1A;" vertex="1" parent="J0RzfSza5QBcRtgYa5vt-4">
          <mxGeometry x="30" width="219" height="29" as="geometry">
            <mxRectangle width="219" height="29" as="alternateBounds" />
          </mxGeometry>
        </mxCell>
        <mxCell id="J0RzfSza5QBcRtgYa5vt-7" value="Purchase_item" style="shape=table;startSize=30;container=1;collapsible=1;childLayout=tableLayout;fixedRows=1;rowLines=0;fontStyle=1;align=center;resizeLast=1;html=1;strokeColor=#D0CEE2;fontColor=#1A1A1A;fillColor=#5D7F99;perimeterSpacing=3;" vertex="1" parent="1">
          <mxGeometry x="424.5" y="590" width="180" height="150" as="geometry" />
        </mxCell>
        <mxCell id="J0RzfSza5QBcRtgYa5vt-8" value="" style="shape=tableRow;horizontal=0;startSize=0;swimlaneHead=0;swimlaneBody=0;fillColor=none;collapsible=0;dropTarget=0;points=[[0,0.5],[1,0.5]];portConstraint=eastwest;top=0;left=0;right=0;bottom=1;strokeColor=#D0CEE2;fontColor=#1A1A1A;" vertex="1" parent="J0RzfSza5QBcRtgYa5vt-7">
          <mxGeometry y="30" width="180" height="30" as="geometry" />
        </mxCell>
        <mxCell id="J0RzfSza5QBcRtgYa5vt-9" value="PK&lt;div&gt;FK&lt;/div&gt;" style="shape=partialRectangle;connectable=0;fillColor=none;top=0;left=0;bottom=0;right=0;fontStyle=1;overflow=hidden;whiteSpace=wrap;html=1;strokeColor=#D0CEE2;fontColor=#1A1A1A;" vertex="1" parent="J0RzfSza5QBcRtgYa5vt-8">
          <mxGeometry width="30" height="30" as="geometry">
            <mxRectangle width="30" height="30" as="alternateBounds" />
          </mxGeometry>
        </mxCell>
        <mxCell id="J0RzfSza5QBcRtgYa5vt-10" value="&lt;u&gt;purchase_id int&lt;/u&gt;" style="shape=partialRectangle;connectable=0;fillColor=none;top=0;left=0;bottom=0;right=0;align=left;spacingLeft=6;fontStyle=5;overflow=hidden;whiteSpace=wrap;html=1;strokeColor=#D0CEE2;fontColor=#1A1A1A;" vertex="1" parent="J0RzfSza5QBcRtgYa5vt-8">
          <mxGeometry x="30" width="150" height="30" as="geometry">
            <mxRectangle width="150" height="30" as="alternateBounds" />
          </mxGeometry>
        </mxCell>
        <mxCell id="J0RzfSza5QBcRtgYa5vt-11" value="" style="shape=tableRow;horizontal=0;startSize=0;swimlaneHead=0;swimlaneBody=0;fillColor=none;collapsible=0;dropTarget=0;points=[[0,0.5],[1,0.5]];portConstraint=eastwest;top=0;left=0;right=0;bottom=0;strokeColor=#D0CEE2;fontColor=#1A1A1A;" vertex="1" parent="J0RzfSza5QBcRtgYa5vt-7">
          <mxGeometry y="60" width="180" height="30" as="geometry" />
        </mxCell>
        <mxCell id="J0RzfSza5QBcRtgYa5vt-12" value="&lt;b&gt;PK FK&lt;/b&gt;" style="shape=partialRectangle;connectable=0;fillColor=none;top=0;left=0;bottom=0;right=0;editable=1;overflow=hidden;whiteSpace=wrap;html=1;strokeColor=#D0CEE2;fontColor=#1A1A1A;" vertex="1" parent="J0RzfSza5QBcRtgYa5vt-11">
          <mxGeometry width="30" height="30" as="geometry">
            <mxRectangle width="30" height="30" as="alternateBounds" />
          </mxGeometry>
        </mxCell>
        <mxCell id="J0RzfSza5QBcRtgYa5vt-13" value="&lt;u&gt;&lt;b&gt;product_id int&lt;/b&gt;&lt;/u&gt;" style="shape=partialRectangle;connectable=0;fillColor=none;top=0;left=0;bottom=0;right=0;align=left;spacingLeft=6;overflow=hidden;whiteSpace=wrap;html=1;strokeColor=#D0CEE2;fontColor=#1A1A1A;" vertex="1" parent="J0RzfSza5QBcRtgYa5vt-11">
          <mxGeometry x="30" width="150" height="30" as="geometry">
            <mxRectangle width="150" height="30" as="alternateBounds" />
          </mxGeometry>
        </mxCell>
        <mxCell id="J0RzfSza5QBcRtgYa5vt-14" value="" style="shape=tableRow;horizontal=0;startSize=0;swimlaneHead=0;swimlaneBody=0;fillColor=none;collapsible=0;dropTarget=0;points=[[0,0.5],[1,0.5]];portConstraint=eastwest;top=0;left=0;right=0;bottom=0;strokeColor=#D0CEE2;fontColor=#1A1A1A;" vertex="1" parent="J0RzfSza5QBcRtgYa5vt-7">
          <mxGeometry y="90" width="180" height="30" as="geometry" />
        </mxCell>
        <mxCell id="J0RzfSza5QBcRtgYa5vt-15" value="" style="shape=partialRectangle;connectable=0;fillColor=none;top=0;left=0;bottom=0;right=0;editable=1;overflow=hidden;whiteSpace=wrap;html=1;strokeColor=#D0CEE2;fontColor=#1A1A1A;" vertex="1" parent="J0RzfSza5QBcRtgYa5vt-14">
          <mxGeometry width="30" height="30" as="geometry">
            <mxRectangle width="30" height="30" as="alternateBounds" />
          </mxGeometry>
        </mxCell>
        <mxCell id="J0RzfSza5QBcRtgYa5vt-16" value="unit_price double" style="shape=partialRectangle;connectable=0;fillColor=none;top=0;left=0;bottom=0;right=0;align=left;spacingLeft=6;overflow=hidden;whiteSpace=wrap;html=1;strokeColor=#D0CEE2;fontColor=#1A1A1A;" vertex="1" parent="J0RzfSza5QBcRtgYa5vt-14">
          <mxGeometry x="30" width="150" height="30" as="geometry">
            <mxRectangle width="150" height="30" as="alternateBounds" />
          </mxGeometry>
        </mxCell>
        <mxCell id="J0RzfSza5QBcRtgYa5vt-17" value="" style="shape=tableRow;horizontal=0;startSize=0;swimlaneHead=0;swimlaneBody=0;fillColor=none;collapsible=0;dropTarget=0;points=[[0,0.5],[1,0.5]];portConstraint=eastwest;top=0;left=0;right=0;bottom=0;strokeColor=#D0CEE2;fontColor=#1A1A1A;" vertex="1" parent="J0RzfSza5QBcRtgYa5vt-7">
          <mxGeometry y="120" width="180" height="30" as="geometry" />
        </mxCell>
        <mxCell id="J0RzfSza5QBcRtgYa5vt-18" value="" style="shape=partialRectangle;connectable=0;fillColor=none;top=0;left=0;bottom=0;right=0;editable=1;overflow=hidden;whiteSpace=wrap;html=1;strokeColor=#D0CEE2;fontColor=#1A1A1A;" vertex="1" parent="J0RzfSza5QBcRtgYa5vt-17">
          <mxGeometry width="30" height="30" as="geometry">
            <mxRectangle width="30" height="30" as="alternateBounds" />
          </mxGeometry>
        </mxCell>
        <mxCell id="J0RzfSza5QBcRtgYa5vt-19" value="quantity int" style="shape=partialRectangle;connectable=0;fillColor=none;top=0;left=0;bottom=0;right=0;align=left;spacingLeft=6;overflow=hidden;whiteSpace=wrap;html=1;strokeColor=#D0CEE2;fontColor=#1A1A1A;" vertex="1" parent="J0RzfSza5QBcRtgYa5vt-17">
          <mxGeometry x="30" width="150" height="30" as="geometry">
            <mxRectangle width="150" height="30" as="alternateBounds" />
          </mxGeometry>
        </mxCell>
        <mxCell id="vUsgY7-ng19fCDbpC5KG-199" value="Product" style="shape=table;startSize=30;container=1;collapsible=1;childLayout=tableLayout;fixedRows=1;rowLines=0;fontStyle=1;align=center;resizeLast=1;html=1;strokeColor=#D0CEE2;fontColor=#1A1A1A;fillColor=#5D7F99;" vertex="1" parent="1">
          <mxGeometry x="400" y="800" width="230" height="240" as="geometry" />
        </mxCell>
        <mxCell id="vUsgY7-ng19fCDbpC5KG-224" value="" style="shape=tableRow;horizontal=0;startSize=0;swimlaneHead=0;swimlaneBody=0;fillColor=none;collapsible=0;dropTarget=0;points=[[0,0.5],[1,0.5]];portConstraint=eastwest;top=0;left=0;right=0;bottom=1;strokeColor=#D0CEE2;fontColor=#1A1A1A;" vertex="1" parent="vUsgY7-ng19fCDbpC5KG-199">
          <mxGeometry y="30" width="230" height="30" as="geometry" />
        </mxCell>
        <mxCell id="vUsgY7-ng19fCDbpC5KG-225" value="PK" style="shape=partialRectangle;connectable=0;fillColor=none;top=0;left=0;bottom=0;right=0;fontStyle=1;overflow=hidden;whiteSpace=wrap;html=1;strokeColor=#D0CEE2;fontColor=#1A1A1A;" vertex="1" parent="vUsgY7-ng19fCDbpC5KG-224">
          <mxGeometry width="30.5" height="30" as="geometry">
            <mxRectangle width="30.5" height="30" as="alternateBounds" />
          </mxGeometry>
        </mxCell>
        <mxCell id="vUsgY7-ng19fCDbpC5KG-226" value="&lt;div&gt;&lt;u style=&quot;background-color: initial;&quot;&gt;product_id &lt;span style=&quot;font-weight: normal;&quot;&gt;int&lt;/span&gt;&amp;nbsp;&lt;/u&gt;&lt;br&gt;&lt;/div&gt;" style="shape=partialRectangle;connectable=0;fillColor=none;top=0;left=0;bottom=0;right=0;align=left;spacingLeft=6;fontStyle=5;overflow=hidden;whiteSpace=wrap;html=1;strokeColor=#D0CEE2;fontColor=#1A1A1A;" vertex="1" parent="vUsgY7-ng19fCDbpC5KG-224">
          <mxGeometry x="30.5" width="199.5" height="30" as="geometry">
            <mxRectangle width="199.5" height="30" as="alternateBounds" />
          </mxGeometry>
        </mxCell>
        <mxCell id="vUsgY7-ng19fCDbpC5KG-534" value="" style="shape=tableRow;horizontal=0;startSize=0;swimlaneHead=0;swimlaneBody=0;fillColor=none;collapsible=0;dropTarget=0;points=[[0,0.5],[1,0.5]];portConstraint=eastwest;top=0;left=0;right=0;bottom=0;strokeColor=#D0CEE2;fontColor=#1A1A1A;" vertex="1" parent="vUsgY7-ng19fCDbpC5KG-199">
          <mxGeometry y="60" width="230" height="30" as="geometry" />
        </mxCell>
        <mxCell id="vUsgY7-ng19fCDbpC5KG-535" value="&lt;b&gt;&lt;font color=&quot;#0000ff&quot;&gt;FK&lt;/font&gt;&lt;/b&gt;" style="shape=partialRectangle;connectable=0;fillColor=none;top=0;left=0;bottom=0;right=0;editable=1;overflow=hidden;whiteSpace=wrap;html=1;strokeColor=#D0CEE2;fontColor=#1A1A1A;" vertex="1" parent="vUsgY7-ng19fCDbpC5KG-534">
          <mxGeometry width="30.5" height="30" as="geometry">
            <mxRectangle width="30.5" height="30" as="alternateBounds" />
          </mxGeometry>
        </mxCell>
        <mxCell id="vUsgY7-ng19fCDbpC5KG-536" value="&lt;font color=&quot;#0000ff&quot;&gt;&lt;b&gt;product name&amp;nbsp;&lt;/b&gt;varchar(45)&lt;/font&gt;" style="shape=partialRectangle;connectable=0;fillColor=none;top=0;left=0;bottom=0;right=0;align=left;spacingLeft=6;overflow=hidden;whiteSpace=wrap;html=1;strokeColor=#D0CEE2;fontColor=#1A1A1A;" vertex="1" parent="vUsgY7-ng19fCDbpC5KG-534">
          <mxGeometry x="30.5" width="199.5" height="30" as="geometry">
            <mxRectangle width="199.5" height="30" as="alternateBounds" />
          </mxGeometry>
        </mxCell>
        <mxCell id="vUsgY7-ng19fCDbpC5KG-531" value="" style="shape=tableRow;horizontal=0;startSize=0;swimlaneHead=0;swimlaneBody=0;fillColor=none;collapsible=0;dropTarget=0;points=[[0,0.5],[1,0.5]];portConstraint=eastwest;top=0;left=0;right=0;bottom=0;strokeColor=#D0CEE2;fontColor=#1A1A1A;" vertex="1" parent="vUsgY7-ng19fCDbpC5KG-199">
          <mxGeometry y="90" width="230" height="30" as="geometry" />
        </mxCell>
        <mxCell id="vUsgY7-ng19fCDbpC5KG-532" value="" style="shape=partialRectangle;connectable=0;fillColor=none;top=0;left=0;bottom=0;right=0;editable=1;overflow=hidden;whiteSpace=wrap;html=1;strokeColor=#D0CEE2;fontColor=#1A1A1A;" vertex="1" parent="vUsgY7-ng19fCDbpC5KG-531">
          <mxGeometry width="30.5" height="30" as="geometry">
            <mxRectangle width="30.5" height="30" as="alternateBounds" />
          </mxGeometry>
        </mxCell>
        <mxCell id="vUsgY7-ng19fCDbpC5KG-533" value="category_id int" style="shape=partialRectangle;connectable=0;fillColor=none;top=0;left=0;bottom=0;right=0;align=left;spacingLeft=6;overflow=hidden;whiteSpace=wrap;html=1;strokeColor=#D0CEE2;fontColor=#1A1A1A;" vertex="1" parent="vUsgY7-ng19fCDbpC5KG-531">
          <mxGeometry x="30.5" width="199.5" height="30" as="geometry">
            <mxRectangle width="199.5" height="30" as="alternateBounds" />
          </mxGeometry>
        </mxCell>
        <mxCell id="vUsgY7-ng19fCDbpC5KG-528" value="" style="shape=tableRow;horizontal=0;startSize=0;swimlaneHead=0;swimlaneBody=0;fillColor=none;collapsible=0;dropTarget=0;points=[[0,0.5],[1,0.5]];portConstraint=eastwest;top=0;left=0;right=0;bottom=0;strokeColor=#D0CEE2;fontColor=#1A1A1A;" vertex="1" parent="vUsgY7-ng19fCDbpC5KG-199">
          <mxGeometry y="120" width="230" height="30" as="geometry" />
        </mxCell>
        <mxCell id="vUsgY7-ng19fCDbpC5KG-529" value="" style="shape=partialRectangle;connectable=0;fillColor=none;top=0;left=0;bottom=0;right=0;editable=1;overflow=hidden;whiteSpace=wrap;html=1;strokeColor=#D0CEE2;fontColor=#1A1A1A;" vertex="1" parent="vUsgY7-ng19fCDbpC5KG-528">
          <mxGeometry width="30.5" height="30" as="geometry">
            <mxRectangle width="30.5" height="30" as="alternateBounds" />
          </mxGeometry>
        </mxCell>
        <mxCell id="vUsgY7-ng19fCDbpC5KG-530" value="&amp;nbsp; &amp;nbsp;&amp;nbsp;&lt;div&gt;quantity_per_unit int&lt;br&gt;&lt;/div&gt;" style="shape=partialRectangle;connectable=0;fillColor=none;top=0;left=0;bottom=0;right=0;align=left;spacingLeft=6;overflow=hidden;whiteSpace=wrap;html=1;strokeColor=#D0CEE2;fontColor=#1A1A1A;" vertex="1" parent="vUsgY7-ng19fCDbpC5KG-528">
          <mxGeometry x="30.5" width="199.5" height="30" as="geometry">
            <mxRectangle width="199.5" height="30" as="alternateBounds" />
          </mxGeometry>
        </mxCell>
        <mxCell id="vUsgY7-ng19fCDbpC5KG-525" value="" style="shape=tableRow;horizontal=0;startSize=0;swimlaneHead=0;swimlaneBody=0;fillColor=none;collapsible=0;dropTarget=0;points=[[0,0.5],[1,0.5]];portConstraint=eastwest;top=0;left=0;right=0;bottom=0;strokeColor=#D0CEE2;fontColor=#1A1A1A;" vertex="1" parent="vUsgY7-ng19fCDbpC5KG-199">
          <mxGeometry y="150" width="230" height="30" as="geometry" />
        </mxCell>
        <mxCell id="vUsgY7-ng19fCDbpC5KG-526" value="" style="shape=partialRectangle;connectable=0;fillColor=none;top=0;left=0;bottom=0;right=0;editable=1;overflow=hidden;whiteSpace=wrap;html=1;strokeColor=#D0CEE2;fontColor=#1A1A1A;" vertex="1" parent="vUsgY7-ng19fCDbpC5KG-525">
          <mxGeometry width="30.5" height="30" as="geometry">
            <mxRectangle width="30.5" height="30" as="alternateBounds" />
          </mxGeometry>
        </mxCell>
        <mxCell id="vUsgY7-ng19fCDbpC5KG-527" value="&lt;div&gt;&lt;br&gt;&lt;/div&gt;unit_price double not null" style="shape=partialRectangle;connectable=0;fillColor=none;top=0;left=0;bottom=0;right=0;align=left;spacingLeft=6;overflow=hidden;whiteSpace=wrap;html=1;strokeColor=#D0CEE2;fontColor=#1A1A1A;" vertex="1" parent="vUsgY7-ng19fCDbpC5KG-525">
          <mxGeometry x="30.5" width="199.5" height="30" as="geometry">
            <mxRectangle width="199.5" height="30" as="alternateBounds" />
          </mxGeometry>
        </mxCell>
        <mxCell id="vUsgY7-ng19fCDbpC5KG-522" value="" style="shape=tableRow;horizontal=0;startSize=0;swimlaneHead=0;swimlaneBody=0;fillColor=none;collapsible=0;dropTarget=0;points=[[0,0.5],[1,0.5]];portConstraint=eastwest;top=0;left=0;right=0;bottom=0;strokeColor=#D0CEE2;fontColor=#1A1A1A;" vertex="1" parent="vUsgY7-ng19fCDbpC5KG-199">
          <mxGeometry y="180" width="230" height="30" as="geometry" />
        </mxCell>
        <mxCell id="vUsgY7-ng19fCDbpC5KG-523" value="" style="shape=partialRectangle;connectable=0;fillColor=none;top=0;left=0;bottom=0;right=0;editable=1;overflow=hidden;whiteSpace=wrap;html=1;strokeColor=#D0CEE2;fontColor=#1A1A1A;" vertex="1" parent="vUsgY7-ng19fCDbpC5KG-522">
          <mxGeometry width="30.5" height="30" as="geometry">
            <mxRectangle width="30.5" height="30" as="alternateBounds" />
          </mxGeometry>
        </mxCell>
        <mxCell id="vUsgY7-ng19fCDbpC5KG-524" value="&amp;nbsp;&amp;nbsp;&lt;div&gt;units_in_stock int not null&lt;br&gt;&lt;/div&gt;" style="shape=partialRectangle;connectable=0;fillColor=none;top=0;left=0;bottom=0;right=0;align=left;spacingLeft=6;overflow=hidden;whiteSpace=wrap;html=1;strokeColor=#D0CEE2;fontColor=#1A1A1A;" vertex="1" parent="vUsgY7-ng19fCDbpC5KG-522">
          <mxGeometry x="30.5" width="199.5" height="30" as="geometry">
            <mxRectangle width="199.5" height="30" as="alternateBounds" />
          </mxGeometry>
        </mxCell>
        <mxCell id="vUsgY7-ng19fCDbpC5KG-203" value="" style="shape=tableRow;horizontal=0;startSize=0;swimlaneHead=0;swimlaneBody=0;fillColor=none;collapsible=0;dropTarget=0;points=[[0,0.5],[1,0.5]];portConstraint=eastwest;top=0;left=0;right=0;bottom=0;strokeColor=#D0CEE2;fontColor=#1A1A1A;" vertex="1" parent="vUsgY7-ng19fCDbpC5KG-199">
          <mxGeometry y="210" width="230" height="30" as="geometry" />
        </mxCell>
        <mxCell id="vUsgY7-ng19fCDbpC5KG-204" value="" style="shape=partialRectangle;connectable=0;fillColor=none;top=0;left=0;bottom=0;right=0;editable=1;overflow=hidden;whiteSpace=wrap;html=1;strokeColor=#D0CEE2;fontColor=#1A1A1A;" vertex="1" parent="vUsgY7-ng19fCDbpC5KG-203">
          <mxGeometry width="30.5" height="30" as="geometry">
            <mxRectangle width="30.5" height="30" as="alternateBounds" />
          </mxGeometry>
        </mxCell>
        <mxCell id="vUsgY7-ng19fCDbpC5KG-205" value="&lt;div&gt;&lt;br&gt;&lt;/div&gt;&lt;div&gt;discontinued&amp;nbsp;TINYINT(1)&lt;br&gt;&lt;/div&gt;" style="shape=partialRectangle;connectable=0;fillColor=none;top=0;left=0;bottom=0;right=0;align=left;spacingLeft=6;overflow=hidden;whiteSpace=wrap;html=1;strokeColor=#D0CEE2;fontColor=#1A1A1A;" vertex="1" parent="vUsgY7-ng19fCDbpC5KG-203">
          <mxGeometry x="30.5" width="199.5" height="30" as="geometry">
            <mxRectangle width="199.5" height="30" as="alternateBounds" />
          </mxGeometry>
        </mxCell>
        <mxCell id="J0RzfSza5QBcRtgYa5vt-29" value="" style="edgeStyle=entityRelationEdgeStyle;fontSize=12;html=1;endArrow=ERzeroToMany;endFill=1;rounded=0;strokeColor=#736CA8;fontColor=#1A1A1A;" edge="1" parent="1" target="vUsgY7-ng19fCDbpC5KG-96">
          <mxGeometry width="100" height="100" relative="1" as="geometry">
            <mxPoint x="650" y="45" as="sourcePoint" />
            <mxPoint x="400" y="-110" as="targetPoint" />
            <Array as="points">
              <mxPoint x="710" y="30" />
            </Array>
          </mxGeometry>
        </mxCell>
        <mxCell id="J0RzfSza5QBcRtgYa5vt-34" value="" style="fontSize=12;html=1;endArrow=ERzeroToMany;startArrow=ERmandOne;rounded=0;strokeColor=#736CA8;fontColor=#1A1A1A;exitX=1;exitY=0;exitDx=0;exitDy=0;exitPerimeter=0;entryX=0;entryY=0.5;entryDx=0;entryDy=0;" edge="1" parent="1" source="vUsgY7-ng19fCDbpC5KG-65" target="vUsgY7-ng19fCDbpC5KG-534">
          <mxGeometry width="100" height="100" relative="1" as="geometry">
            <mxPoint x="270" y="990" as="sourcePoint" />
            <mxPoint x="370" y="890" as="targetPoint" />
            <Array as="points" />
          </mxGeometry>
        </mxCell>
        <mxCell id="J0RzfSza5QBcRtgYa5vt-35" value="" style="fontSize=12;html=1;endArrow=ERzeroToMany;startArrow=ERmandOne;rounded=0;strokeColor=#736CA8;fontColor=#1A1A1A;exitX=0.5;exitY=0;exitDx=0;exitDy=0;" edge="1" parent="1" source="vUsgY7-ng19fCDbpC5KG-199" target="J0RzfSza5QBcRtgYa5vt-17">
          <mxGeometry width="100" height="100" relative="1" as="geometry">
            <mxPoint x="250" y="885" as="sourcePoint" />
            <mxPoint x="410" y="885" as="targetPoint" />
            <Array as="points" />
          </mxGeometry>
        </mxCell>
        <mxCell id="J0RzfSza5QBcRtgYa5vt-36" value="" style="fontSize=12;html=1;endArrow=ERzeroToMany;startArrow=ERmandOne;rounded=0;strokeColor=#736CA8;fontColor=#1A1A1A;" edge="1" parent="1" source="J0RzfSza5QBcRtgYa5vt-4">
          <mxGeometry width="100" height="100" relative="1" as="geometry">
            <mxPoint x="525" y="810" as="sourcePoint" />
            <mxPoint x="515" y="590" as="targetPoint" />
            <Array as="points" />
          </mxGeometry>
        </mxCell>
        <mxCell id="J0RzfSza5QBcRtgYa5vt-37" value="" style="fontSize=12;html=1;endArrow=ERzeroToMany;startArrow=ERmandOne;rounded=0;strokeColor=#736CA8;fontColor=#1A1A1A;entryX=-0.008;entryY=1;entryDx=0;entryDy=0;entryPerimeter=0;" edge="1" parent="1" target="vUsgY7-ng19fCDbpC5KG-541">
          <mxGeometry width="100" height="100" relative="1" as="geometry">
            <mxPoint x="270" y="320" as="sourcePoint" />
            <mxPoint x="420" y="320" as="targetPoint" />
            <Array as="points" />
          </mxGeometry>
        </mxCell>
        <mxCell id="J0RzfSza5QBcRtgYa5vt-38" value="" style="fontSize=12;html=1;endArrow=ERzeroToMany;startArrow=ERmandOne;rounded=0;strokeColor=#736CA8;fontColor=#1A1A1A;exitX=0.496;exitY=1.1;exitDx=0;exitDy=0;exitPerimeter=0;" edge="1" parent="1" source="vUsgY7-ng19fCDbpC5KG-196">
          <mxGeometry width="100" height="100" relative="1" as="geometry">
            <mxPoint x="525" y="162" as="sourcePoint" />
            <mxPoint x="524" y="230" as="targetPoint" />
            <Array as="points" />
          </mxGeometry>
        </mxCell>
      </root>
    </mxGraphModel>
  </diagram>
  <diagram id="8TTRml_6FMnT6nN7q7eP" name="Página-2">
    <mxGraphModel grid="1" page="1" gridSize="10" guides="1" tooltips="1" connect="1" arrows="1" fold="1" pageScale="1" pageWidth="827" pageHeight="1169" math="0" shadow="0">
      <root>
        <mxCell id="0" />
        <mxCell id="1" parent="0" />
      </root>
    </mxGraphModel>
  </diagram>
</mxfile>
